# xmcd
#
# Track frame offsets:
# 150
# 27327
# 66613
# 88935
# 107077
# 140892
# 161400
# 179959
# 203865
# 217153
# 238304
# 277954
#
# Disc length: 4368 seconds
#
# Revision: 0
# Processed by: cddbd v1.4PL0 Copyright (c) Steve Scherf et al.
# Submitted via: Audion 2.6.0 (http://www.panic.com/audion/)
#
DISCID=c9110e0c
DTITLE=Joanna Conner - Nothing But the Blues
DYEAR=1900
DGENRE=
TTITLE0=Rock me Baby
TTITLE1=Make love to you
TTITLE2=Howlin'
TTITLE3=Big Girl Blues
TTITLE4=Dr. Feelgood
TTITLE5=Little Bit
TTITLE6=Dust my Broom
TTITLE7=You're so fine
TTITLE8=Meditations
TTITLE9=Got to have you
TTITLE10=They love each other
TTITLE11=Walking Blues
EXTD=
EXTT0=
EXTT1=
EXTT2=
EXTT3=
EXTT4=
EXTT5=
EXTT6=
EXTT7=
EXTT8=
EXTT9=
EXTT10=
EXTT11=
PLAYORDER=
